<svg xmlns="http://www.w3.org/2000/svg" xml:space="preserve" viewBox="0 0 800 800"><path fill="#FFF" d="M800 389.7c0 215.2-175.8 389.7-392.8 389.7-68.8 0-133.5-17.6-189.8-48.4L0 800l70.9-209.1c-35.7-58.7-56.3-127.6-56.3-201.2C14.6 174.5 190.4 0 407.3 0 624.2.1 800 174.5 800 389.7zM407.2 62.1C225.1 62.1 77 209.1 77 389.7c0 71.7 23.4 138.1 62.9 192.1L98.7 703.5l126.8-40.3c52.2 34.2 114.6 54.2 181.6 54.2 182.1 0 330.2-146.9 330.2-327.6.2-180.7-148-327.7-330.1-327.7zm198.4 417.4c-2.5-3.9-8.9-6.3-18.5-11.1s-57-27.9-65.8-31c-8.9-3.2-15.3-4.8-21.7 4.7-6.3 9.6-24.8 31.1-30.5 37.5-5.6 6.4-11.2 7.2-20.8 2.5-9.6-4.9-40.7-14.9-77.5-47.4-28.6-25.4-47.9-56.6-53.5-66.2-5.7-9.5-.6-14.7 4.2-19.5 4.3-4.3 9.6-11.2 14.5-16.8 4.8-5.6 6.4-9.5 9.6-15.9 3.2-6.4 1.6-11.9-.8-16.8-2.4-4.8-21.6-51.8-29.7-70.9-8-19.1-16-15.9-21.7-15.9-5.6 0-12-.8-18.4-.8s-16.9 2.3-25.6 11.9c-8.8 9.6-33.7 32.7-33.7 79.7 0 47.1 34.5 92.4 39.3 98.8 4.9 6.3 66.6 106 164.5 144.2 97.9 38.2 97.9 25.5 115.5 23.8 17.7-1.6 57-23.1 65-45.4 8-22.3 8-41.4 5.6-45.4z"/></svg>