<svg xmlns="http://www.w3.org/2000/svg" xml:space="preserve" viewBox="0 0 800 800"><path d="M592 459.7c-1.6-.7-59.9-29.5-70.2-33.2-4.2-1.5-8.8-3-13.6-3-7.9 0-14.5 3.9-19.6 11.6-5.8 8.7-23.5 29.3-28.9 35.4-.7.8-1.7 1.8-2.3 1.8-.5 0-9.5-3.7-12.3-4.9-62.6-27.2-110.1-92.5-116.6-103.6-.9-1.6-1-2.3-1-2.3.2-.8 2.3-2.9 3.4-4 3.2-3.1 6.6-7.3 9.9-11.3 1.6-1.9 3.2-3.8 4.7-5.6 4.8-5.6 7-10 9.5-15l1.3-2.6c6.1-12.1.9-22.3-.8-25.6-1.4-2.8-26-62.2-28.6-68.4-6.3-15.1-14.6-22.1-26.2-22.1-1.1 0 0 0-4.5.2-5.5.2-35.3 4.2-48.5 12.5-14 8.8-37.6 36.9-37.6 86.4 0 44.5 28.2 86.5 40.4 102.5.3.4.9 1.2 1.7 2.4 46.4 67.8 104.3 118 163 141.5 56.5 22.6 83.2 25.2 98.4 25.2 6.4 0 11.5-.5 16-.9l2.9-.3c19.5-1.7 62.4-23.9 72.1-51.1 7.7-21.3 9.7-44.7 4.6-53.1-3.6-5.9-9.6-8.8-17.2-12.5z"/><path d="M407.1 0C190.4 0 14.2 174.9 14.2 390c0 69.6 18.6 137.6 53.9 197.2L.6 786.3c-1.3 3.7-.3 7.8 2.4 10.6 2 2 4.7 3.1 7.4 3.1 1.1 0 2.1-.2 3.1-.5l207.6-66c56.8 30.4 121 46.4 186 46.4C623.7 779.9 800 605 800 390 800 174.9 623.7 0 407.1 0zm0 698.7c-61.1 0-120.4-17.7-171.3-51.1-1.7-1.1-3.7-1.7-5.7-1.7-1.1 0-2.1.2-3.1.5l-104 33.1 33.6-99c1.1-3.2.5-6.7-1.5-9.5-38.8-53-59.3-115.5-59.3-181C95.8 219.8 235.4 81.3 407 81.3S718.2 219.8 718.2 390c.1 170.2-139.5 308.7-311.1 308.7z"/></svg>